<?xml version="1.0" standalone="no"?>
<!DOCTYPE svg PUBLIC "-//W3C//DTD SVG 20010904//EN"
 "http://www.w3.org/TR/2001/REC-SVG-20010904/DTD/svg10.dtd">
<svg version="1.0" xmlns="http://www.w3.org/2000/svg"
 width="980.000000pt" height="980.000000pt" viewBox="0 0 980.000000 980.000000"
 preserveAspectRatio="xMidYMid meet">

<g transform="translate(0.000000,980.000000) scale(0.100000,-0.100000)"
fill="#000000" stroke="none">
<path d="M7056 9789 c-258 -24 -550 -110 -811 -238 -202 -99 -372 -212 -522
-348 -158 -143 -1676 -1661 -1887 -1888 -143 -154 -247 -287 -235 -300 2 -2
39 3 81 10 361 63 770 39 1205 -73 l153 -39 668 661 c823 815 877 865 1029
940 377 189 834 179 1186 -26 117 -68 216 -145 328 -257 232 -232 343 -439
379 -708 19 -137 8 -464 -19 -568 -47 -187 -125 -322 -282 -490 -411 -440
-1664 -1686 -1867 -1855 -146 -123 -341 -211 -547 -247 -129 -22 -354 -13
-495 20 -235 56 -344 111 -565 287 -92 73 -172 127 -233 158 -88 43 -99 46
-188 50 -187 8 -305 -38 -440 -173 -130 -129 -184 -269 -171 -440 11 -146 75
-261 230 -413 385 -379 918 -610 1501 -652 593 -42 1268 180 1701 558 165 144
865 835 1316 1299 797 820 805 830 944 1096 122 233 216 495 249 692 54 318
44 781 -24 1043 -177 694 -703 1334 -1371 1666 -242 120 -445 183 -719 221
-140 19 -459 27 -594 14z"/>
<path d="M3830 6590 c-274 -35 -519 -111 -805 -250 -175 -85 -299 -163 -395
-249 -372 -330 -1762 -1709 -2052 -2036 -288 -324 -480 -746 -554 -1217 -25
-158 -25 -518 -1 -678 72 -459 246 -858 529 -1208 82 -102 282 -301 388 -386
294 -235 654 -419 980 -500 291 -72 713 -84 1031 -30 196 34 474 133 699 251
230 120 307 180 669 523 533 504 1446 1433 1755 1785 83 95 132 162 124 170
-3 3 -76 -2 -164 -11 -385 -38 -757 -8 -1117 91 -70 19 -133 35 -139 35 -6 0
-259 -246 -562 -548 -820 -815 -1005 -986 -1138 -1053 -181 -91 -312 -119
-560 -120 -409 0 -646 96 -931 379 -202 200 -311 369 -382 593 -86 273 -68
579 51 863 83 197 143 265 1054 1179 931 936 1062 1056 1245 1143 352 167 692
175 1060 25 115 -48 185 -92 345 -220 188 -150 284 -199 410 -208 104 -8 207
12 293 55 91 45 218 169 264 258 61 114 79 268 48 389 -48 183 -227 375 -550
590 -309 206 -580 306 -993 366 -158 22 -487 33 -602 19z"/>
</g>
</svg>
