<?xml version="1.0" standalone="no"?>
<!DOCTYPE svg PUBLIC "-//W3C//DTD SVG 20010904//EN"
 "http://www.w3.org/TR/2001/REC-SVG-20010904/DTD/svg10.dtd">
<svg version="1.0" xmlns="http://www.w3.org/2000/svg"
 width="815.000000pt" height="815.000000pt" viewBox="0 0 815.000000 815.000000"
 preserveAspectRatio="xMidYMid meet">
<metadata>
Created by potrace 1.11, written by Peter Selinger 2001-2013
</metadata>
<g transform="translate(0.000000,815.000000) scale(0.100000,-0.100000)"
fill="#000000" stroke="none">
<path d="M3870 7543 c-1078 -64 -2070 -630 -2676 -1528 -308 -456 -493 -950
-570 -1520 -25 -185 -25 -657 0 -840 65 -476 203 -897 416 -1274 l65 -114 6
121 c5 109 8 126 38 186 38 79 112 148 196 186 114 52 145 55 470 52 165 -2
342 0 393 3 l93 7 -3 516 c-2 285 -7 525 -12 535 -7 14 -23 17 -106 17 l-98 0
-28 -57 c-18 -37 -60 -90 -115 -145 -70 -72 -101 -95 -170 -128 -194 -93 -384
-93 -579 1 -70 33 -99 55 -170 127 -97 99 -139 173 -172 305 -40 157 -12 340
74 485 72 122 219 239 358 283 93 30 246 36 345 14 215 -48 408 -222 472 -426
l18 -59 116 0 c160 0 227 -21 307 -95 65 -60 110 -140 139 -246 16 -59 17
-175 20 -1565 l4 -1501 27 -13 c15 -6 62 -25 105 -41 l77 -28 0 1547 c0 1367
2 1555 16 1607 44 170 175 281 359 306 46 6 210 9 390 7 l310 -3 63 -34 c34
-19 77 -50 94 -70 40 -45 85 -142 98 -210 6 -35 10 -621 10 -1697 l0 -1644 59
0 c32 0 79 3 105 6 l46 7 0 2583 0 2582 -46 18 c-72 27 -156 86 -224 156 -108
110 -180 289 -180 448 0 301 223 574 520 636 155 33 336 1 475 -84 122 -74
232 -215 276 -352 30 -93 36 -246 14 -344 -42 -191 -171 -356 -343 -438 l-91
-43 -1 -756 0 -757 243 -4 c272 -6 334 -16 476 -84 134 -65 250 -203 280 -335
7 -29 11 -520 11 -1391 0 -877 3 -1348 10 -1348 15 0 223 143 332 228 l98 77
0 1510 -1 1510 -91 44 c-152 74 -265 203 -326 373 -24 66 -26 87 -26 208 0
123 3 142 28 210 41 110 87 178 172 260 201 191 478 232 734 109 70 -33 99
-55 170 -127 95 -98 138 -172 170 -299 78 -301 -81 -624 -367 -750 l-63 -27 0
-1308 c0 -720 2 -1308 4 -1308 8 0 143 174 213 275 153 219 304 504 397 752
262 696 293 1460 90 2183 -102 360 -283 735 -511 1057 -448 633 -1110 1104
-1857 1322 -372 109 -792 157 -1176 134z"/>
<path d="M4555 6636 c-153 -72 -194 -265 -83 -391 120 -136 335 -110 414 52
52 106 30 218 -58 298 -78 70 -179 86 -273 41z"/>
<path d="M6405 5286 c-55 -25 -110 -81 -131 -132 -20 -48 -17 -151 5 -199 40
-89 131 -147 230 -147 70 0 124 22 175 70 51 49 76 104 76 171 0 74 -17 124
-59 172 -72 86 -195 113 -296 65z"/>
<path d="M1427 4389 c-116 -28 -196 -124 -197 -238 0 -74 17 -124 59 -172 121
-142 354 -105 426 68 21 49 19 149 -4 198 -47 105 -176 170 -284 144z"/>
<path d="M4860 2284 c0 -1515 1 -1595 18 -1590 9 3 53 14 97 25 104 26 356
112 440 150 l65 30 0 1424 0 1424 -23 34 c-46 69 -185 98 -459 99 l-138 0 0
-1596z"/>
<path d="M3317 3863 c-4 -3 -7 -721 -7 -1594 l0 -1587 113 -21 c123 -22 342
-51 394 -51 l33 0 0 1630 0 1630 -263 0 c-145 0 -267 -3 -270 -7z"/>
<path d="M1540 2411 l-25 -7 -3 -341 -2 -341 136 -131 c74 -72 184 -170 242
-217 97 -77 334 -243 390 -273 l22 -12 0 666 0 665 -367 -1 c-203 -1 -379 -4
-393 -8z"/>
</g>
</svg>
